<?xml version="1.0" encoding="utf-8"?>
<svg version="1.1" xmlns:xlink="http://www.w3.org/1999/xlink" width="55px" height="37px" xmlns="http://www.w3.org/2000/svg">
  <g transform="matrix(1 0 0 1 -460 -222 )">
    <path d="M 36.39453125 19.9321732954545  C 36.5759548611111 19.7657433712121  36.6666666666667 19.5686553030303  36.6666666666667 19.3409090909091  C 36.6666666666667 19.0956439393939  36.5807291666667 18.8941761363636  36.4088541666667 18.7365056818182  L 26.3255208333333 9.48650568181818  C 26.1536458333333 9.32883522727272  25.9340277777778 9.25  25.6666666666667 9.25  C 25.3993055555556 9.25  25.1796875 9.32883522727272  25.0078125 9.48650568181818  L 14.953125 18.7102272727273  C 14.7621527777778 18.9204545454545  14.6666666666667 19.1306818181818  14.6666666666667 19.3409090909091  C 14.6666666666667 19.5861742424242  14.7526041666667 19.7876420454545  14.9244791666667 19.9453125  C 15.0963541666667 20.1029829545455  15.3159722222222 20.1818181818182  15.5833333333333 20.1818181818182  L 22 20.1818181818182  L 22 29.4318181818182  C 22 29.6595643939394  22.0907118055556 29.8566524621212  22.2721354166667 30.0230823863636  C 22.4535590277778 30.1895123106061  22.6684027777778 30.2727272727273  22.9166666666667 30.2727272727273  L 28.4166666666667 30.2727272727273  C 28.6649305555556 30.2727272727273  28.8797743055556 30.1895123106061  29.0611979166667 30.0230823863636  C 29.2426215277778 29.8566524621212  29.3333333333333 29.6595643939394  29.3333333333333 29.4318181818182  L 29.3333333333333 20.1818181818182  L 35.75 20.1818181818182  C 35.9982638888889 20.1818181818182  36.2131076388889 20.098603219697  36.39453125 19.9321732954545  Z M 52.6080729166667 20.6416903409091  C 54.2026909722222 22.4724195075758  55 24.561553030303  55 26.9090909090909  C 55 29.6946022727273  53.92578125 32.0727982954545  51.77734375 34.0436789772727  C 49.62890625 36.0145596590909  47.0364583333333 37  44 37  L 12.8333333333333 37  C 9.30034722222222 37  6.27821180555556 35.8481297348485  3.76692708333333 33.5443892045455  C 1.25564236111111 31.2406486742424  0 28.4682765151515  0 25.2272727272727  C 0 22.9498106060606  0.668402777777778 20.8475378787879  2.00520833333333 18.9204545454545  C 3.34201388888889 16.9933712121212  5.13715277777778 15.5480587121212  7.390625 14.5845170454545  C 7.35243055555556 14.0589488636364  7.33333333333333 13.6822916666667  7.33333333333333 13.4545454545455  C 7.33333333333333 9.7405303030303  8.765625 6.56960227272727  11.6302083333333 3.94176136363636  C 14.4947916666667 1.31392045454546  17.9513888888889 0  22 0  C 24.9791666666667 0  27.7052951388889 0.762073863636365  30.1783854166667 2.28622159090909  C 32.6514756944445 3.81036931818182  34.4513888888889 5.83380681818182  35.578125 8.35653409090909  C 36.9340277777778 7.27035984848485  38.5190972222222 6.72727272727273  40.3333333333333 6.72727272727273  C 42.3576388888889 6.72727272727273  44.0859375 7.38423295454546  45.5182291666667 8.69815340909091  C 46.9505208333333 10.0120738636364  47.6666666666667 11.5975378787879  47.6666666666667 13.4545454545455  C 47.6666666666667 14.7859848484848  47.2751736111111 15.9947916666667  46.4921875 17.0809659090909  C 48.9748263888889 17.624053030303  51.0134548611111 18.8109611742424  52.6080729166667 20.6416903409091  Z " fill-rule="nonzero" fill="#000000" stroke="none" transform="matrix(1 0 0 1 460 222 )" />
  </g>
</svg>